<svg xmlns="http://www.w3.org/2000/svg" viewBox="0 0 1000.00 722.16" width="1000" height="722" role="img" aria-label="China outline map">
  <path d="M 718.02 578.39 L 717.50 579.54 L 716.58 579.35 L 716.56 578.53 L 716.37 578.29 L 716.62 577.53 L 716.79 577.32 L 717.83 577.97 L 718.02 578.39 Z M 775.31 444.92 L 774.03 445.47 L 769.98 443.83 L 767.12 442.03 L 765.41 439.85 L 765.17 438.95 L 767.16 439.10 L 769.11 439.88 L 769.54 441.08 L 770.33 441.46 L 770.86 442.16 L 774.47 443.78 L 775.02 444.27 L 775.31 444.92 Z M 782.06 474.09 L 781.84 474.46 L 779.91 473.37 L 777.83 473.14 L 777.11 472.17 L 776.98 470.66 L 779.17 470.73 L 781.88 472.09 L 782.47 472.79 L 782.06 474.09 Z M 780.14 479.52 L 780.08 479.87 L 778.76 478.63 L 778.12 478.43 L 778.42 477.73 L 779.31 477.55 L 780.02 479.10 L 780.14 479.52 Z M 783.74 475.44 L 783.59 476.33 L 783.17 476.20 L 782.62 474.63 L 782.92 474.25 L 783.70 474.34 L 783.74 475.44 Z M 743.52 560.06 L 742.37 560.95 L 741.65 560.53 L 741.63 559.34 L 742.00 558.28 L 741.58 557.51 L 741.99 556.59 L 742.86 556.32 L 743.16 556.89 L 743.65 557.19 L 743.80 557.50 L 743.80 558.10 L 743.34 559.09 L 743.70 559.63 L 743.52 560.06 Z M 596.61 643.32 L 597.19 643.97 L 598.74 643.51 L 599.02 644.35 L 599.01 644.74 L 598.46 645.71 L 597.19 644.96 L 595.91 645.14 L 594.99 645.07 L 594.74 644.61 L 595.44 643.67 L 596.61 643.32 Z M 765.80 509.90 L 764.44 510.36 L 763.93 510.35 L 763.97 508.97 L 765.08 507.65 L 765.53 508.09 L 765.79 508.78 L 765.80 509.90 Z M 645.97 610.67 L 646.10 611.56 L 644.89 610.21 L 644.54 610.13 L 643.96 609.63 L 643.62 608.79 L 644.56 608.76 L 645.43 609.76 L 645.97 610.67 Z M 634.06 633.61 L 633.76 633.99 L 633.31 633.30 L 633.18 632.31 L 632.85 631.78 L 633.60 631.10 L 633.93 630.36 L 634.82 630.51 L 635.19 630.73 L 634.41 631.51 L 634.22 631.84 L 634.06 633.61 Z M 631.78 632.89 L 630.25 633.29 L 629.93 633.21 L 630.46 632.22 L 631.84 631.54 L 631.78 632.89 Z M 559.05 635.40 L 558.05 634.40 L 556.40 632.78 L 555.73 632.60 L 553.89 633.38 L 551.25 633.68 L 550.66 632.84 L 549.38 633.48 L 548.14 631.54 L 546.69 631.41 L 544.87 629.94 L 544.22 629.17 L 544.01 628.05 L 543.46 627.47 L 542.74 627.54 L 541.95 626.94 L 540.70 626.36 L 539.70 626.01 L 539.20 626.28 L 538.67 626.42 L 538.58 625.67 L 538.62 623.41 L 538.52 621.41 L 538.25 620.51 L 537.57 619.82 L 536.96 619.50 L 536.69 618.47 L 536.91 616.45 L 537.41 615.08 L 538.20 614.83 L 539.26 613.85 L 539.80 612.45 L 540.49 611.15 L 538.05 609.34 L 536.77 608.69 L 535.36 608.96 L 533.60 609.54 L 532.68 609.66 L 532.22 609.43 L 531.20 607.79 L 530.65 607.51 L 529.40 607.40 L 528.35 607.42 L 527.75 608.13 L 526.82 608.37 L 525.89 608.41 L 524.95 607.52 L 523.53 606.37 L 521.30 605.55 L 521.03 604.61 L 520.47 603.49 L 519.62 602.45 L 518.23 601.07 L 517.06 600.35 L 516.49 600.79 L 515.71 601.58 L 512.70 603.23 L 511.37 603.87 L 510.66 604.34 L 510.07 605.03 L 509.89 606.73 L 509.59 608.63 L 508.72 609.60 L 507.90 610.33 L 507.04 610.41 L 506.19 610.37 L 505.40 610.67 L 502.99 612.58 L 501.85 612.43 L 500.91 611.35 L 500.51 610.57 L 499.43 610.75 L 498.04 611.66 L 497.40 613.30 L 497.06 614.83 L 496.75 615.51 L 496.29 615.71 L 495.88 615.75 L 491.55 611.32 L 491.29 611.10 L 490.52 612.00 L 489.81 614.35 L 489.31 614.80 L 488.96 614.62 L 487.17 611.62 L 486.72 611.33 L 486.31 611.43 L 485.78 612.40 L 484.64 613.83 L 483.77 614.70 L 483.75 615.67 L 482.81 616.52 L 481.71 617.37 L 481.35 617.46 L 480.62 617.12 L 479.67 615.99 L 478.98 614.81 L 477.29 613.64 L 475.38 612.65 L 474.11 611.88 L 473.39 611.69 L 472.72 612.03 L 472.39 612.51 L 471.91 613.68 L 470.77 615.60 L 469.75 617.12 L 468.80 618.10 L 468.05 618.78 L 467.49 618.15 L 466.44 617.64 L 465.21 617.63 L 463.60 618.60 L 462.32 616.66 L 461.99 616.57 L 461.51 616.73 L 460.95 617.20 L 460.55 618.28 L 460.14 619.77 L 459.33 620.74 L 458.66 621.18 L 458.86 622.01 L 459.24 622.92 L 459.21 623.71 L 459.46 624.96 L 459.88 626.21 L 461.38 628.26 L 461.96 629.32 L 462.07 630.25 L 462.13 633.54 L 462.07 634.91 L 461.77 637.56 L 461.75 639.08 L 462.37 639.77 L 462.98 640.59 L 462.96 641.04 L 462.69 641.20 L 461.83 642.11 L 461.46 642.23 L 460.90 641.86 L 460.17 641.57 L 459.58 641.21 L 458.94 640.62 L 457.40 640.69 L 454.87 641.58 L 454.35 641.33 L 453.99 640.82 L 453.79 639.78 L 453.92 638.56 L 453.69 637.78 L 453.22 637.32 L 453.55 635.13 L 452.65 634.27 L 452.78 634.00 L 452.49 631.64 L 452.53 631.06 L 452.37 630.86 L 451.73 630.67 L 450.79 631.04 L 447.92 632.59 L 445.46 635.46 L 444.34 636.09 L 443.19 636.35 L 441.86 635.86 L 440.38 635.53 L 438.27 636.26 L 437.22 635.93 L 436.74 635.34 L 436.31 634.45 L 436.57 633.32 L 436.41 632.49 L 435.56 632.07 L 434.58 631.71 L 434.00 630.62 L 433.76 629.43 L 433.99 627.89 L 434.11 626.24 L 433.64 625.48 L 432.20 625.07 L 428.58 624.31 L 425.40 623.90 L 424.07 624.09 L 422.99 623.91 L 422.36 623.61 L 422.05 623.09 L 422.04 622.34 L 422.55 620.62 L 423.14 618.95 L 424.61 616.51 L 424.70 614.83 L 424.62 612.88 L 425.35 610.27 L 426.62 608.32 L 427.25 607.72 L 427.09 606.85 L 426.59 606.05 L 425.86 605.62 L 424.66 605.11 L 422.78 604.97 L 420.21 604.45 L 417.23 603.29 L 417.57 601.07 L 417.52 599.68 L 417.16 598.54 L 416.55 597.73 L 416.20 597.01 L 416.74 595.03 L 416.05 592.86 L 415.23 592.00 L 414.38 590.88 L 414.32 589.67 L 414.71 588.54 L 416.77 586.13 L 416.78 585.55 L 416.27 585.59 L 415.68 585.64 L 412.87 586.53 L 412.57 585.97 L 411.56 585.65 L 409.50 585.59 L 407.09 585.75 L 404.05 586.61 L 401.26 588.12 L 399.98 589.16 L 398.89 589.80 L 398.02 590.01 L 397.00 589.56 L 397.06 588.08 L 398.97 585.36 L 399.24 583.49 L 398.66 581.89 L 398.59 580.61 L 397.92 579.79 L 396.98 579.39 L 396.49 578.48 L 396.46 575.82 L 397.29 573.08 L 398.66 572.21 L 399.48 571.80 L 399.70 571.26 L 399.28 569.35 L 399.34 568.13 L 400.16 565.77 L 400.97 563.98 L 402.51 564.28 L 403.19 563.83 L 403.95 563.20 L 404.78 562.12 L 405.33 560.85 L 406.01 557.89 L 406.47 557.44 L 408.40 557.93 L 408.98 557.59 L 410.04 555.85 L 411.03 553.73 L 412.48 553.08 L 413.52 553.01 L 414.00 552.31 L 413.98 551.27 L 412.98 549.63 L 412.57 548.32 L 412.69 547.53 L 414.11 547.04 L 414.46 546.09 L 414.24 544.01 L 414.83 541.51 L 415.18 538.57 L 415.29 536.38 L 415.28 534.71 L 415.14 532.96 L 414.94 529.77 L 414.29 526.99 L 414.41 525.95 L 414.32 522.58 L 413.92 519.70 L 413.12 519.20 L 411.64 518.27 L 410.83 518.09 L 410.15 518.43 L 409.89 519.43 L 409.24 520.36 L 408.44 520.13 L 408.05 519.20 L 407.54 517.97 L 405.81 512.17 L 405.63 510.49 L 405.32 508.83 L 404.74 508.00 L 404.13 507.51 L 402.76 505.56 L 402.03 504.75 L 401.68 504.61 L 400.93 504.75 L 400.19 504.75 L 399.58 503.78 L 399.03 502.59 L 398.47 502.01 L 397.54 501.68 L 396.59 501.81 L 396.03 502.84 L 395.65 503.43 L 394.93 504.80 L 393.76 506.69 L 393.23 507.39 L 392.72 507.03 L 390.47 505.05 L 389.39 504.51 L 387.92 505.10 L 385.61 504.63 L 384.72 504.55 L 382.81 502.97 L 382.03 502.77 L 379.30 503.80 L 378.70 504.53 L 378.35 504.54 L 377.62 504.17 L 377.03 503.69 L 376.99 503.38 L 377.72 502.61 L 377.78 502.07 L 377.74 501.52 L 378.80 499.98 L 381.69 496.98 L 381.21 495.72 L 380.07 493.25 L 379.92 492.04 L 379.43 491.50 L 378.04 491.95 L 375.17 494.19 L 374.78 493.95 L 374.85 493.17 L 374.55 490.90 L 375.46 490.22 L 376.86 489.39 L 377.93 488.47 L 378.18 487.72 L 377.89 487.49 L 376.30 487.78 L 375.68 487.27 L 374.64 485.19 L 373.88 484.38 L 373.19 483.94 L 370.85 485.01 L 368.13 486.48 L 365.11 488.53 L 365.12 489.59 L 364.76 489.86 L 364.18 490.52 L 363.62 491.43 L 363.13 491.76 L 362.57 491.78 L 361.42 491.52 L 359.33 490.48 L 357.06 489.62 L 356.57 489.72 L 353.48 489.11 L 353.39 488.63 L 352.92 487.67 L 352.05 486.80 L 351.21 486.51 L 348.79 488.34 L 346.07 489.71 L 344.52 491.33 L 343.24 492.93 L 341.78 493.24 L 341.71 494.23 L 341.09 495.13 L 339.98 496.22 L 337.78 497.62 L 336.29 498.38 L 331.55 499.07 L 329.86 499.54 L 329.15 500.28 L 328.39 502.15 L 327.79 503.87 L 326.48 505.30 L 324.10 507.20 L 321.29 508.74 L 320.53 509.77 L 320.38 510.37 L 320.73 510.60 L 321.07 511.06 L 321.07 511.76 L 320.71 512.52 L 318.88 513.85 L 317.85 514.49 L 316.82 514.89 L 315.68 514.97 L 314.57 514.79 L 314.27 514.57 L 313.83 514.85 L 312.82 515.13 L 311.94 515.22 L 310.02 516.69 L 308.95 516.70 L 307.64 516.38 L 305.89 516.13 L 304.63 516.13 L 304.60 515.35 L 304.79 513.01 L 304.22 512.47 L 302.48 511.89 L 300.52 511.13 L 299.57 510.33 L 299.05 510.05 L 298.31 510.19 L 297.13 511.04 L 296.01 512.03 L 295.12 512.12 L 294.21 511.65 L 293.34 511.04 L 290.37 510.18 L 289.04 510.05 L 286.66 510.20 L 284.72 510.02 L 284.41 509.75 L 284.42 509.27 L 284.71 508.34 L 284.88 507.42 L 284.65 506.89 L 282.66 506.25 L 280.85 505.78 L 278.93 505.61 L 277.64 505.94 L 276.38 506.66 L 275.33 507.96 L 273.82 508.53 L 272.02 509.50 L 271.14 510.40 L 269.82 512.35 L 267.90 514.73 L 266.16 517.06 L 265.25 519.32 L 264.05 520.75 L 262.84 521.77 L 261.97 524.60 L 261.05 523.70 L 260.00 522.42 L 259.75 520.67 L 261.01 515.99 L 261.30 514.05 L 260.99 513.32 L 260.60 511.42 L 259.86 510.79 L 257.76 509.80 L 257.09 509.77 L 256.36 510.45 L 255.66 510.89 L 254.72 511.32 L 252.37 512.14 L 250.28 512.52 L 249.78 512.83 L 249.63 513.37 L 249.80 514.02 L 248.45 513.77 L 247.05 513.63 L 245.92 513.72 L 243.15 514.96 L 242.21 515.07 L 241.16 514.95 L 239.74 514.91 L 237.04 514.94 L 234.72 514.63 L 232.83 512.91 L 231.49 512.15 L 230.06 511.56 L 228.63 511.13 L 228.15 510.20 L 227.70 509.74 L 226.52 509.58 L 225.58 509.92 L 225.00 512.24 L 224.50 512.70 L 223.31 512.91 L 222.06 512.32 L 220.34 511.13 L 219.66 509.80 L 219.08 509.37 L 218.17 509.95 L 218.12 511.65 L 217.95 512.79 L 216.86 513.26 L 216.23 512.92 L 215.73 511.74 L 214.46 508.97 L 213.20 507.34 L 211.94 506.25 L 207.77 506.28 L 204.68 505.96 L 203.29 505.52 L 202.76 504.45 L 203.27 502.31 L 203.87 500.64 L 203.86 500.25 L 203.35 500.05 L 202.46 499.92 L 199.12 500.99 L 198.22 500.86 L 197.63 500.50 L 196.93 500.19 L 196.35 499.69 L 195.94 498.96 L 193.06 497.18 L 192.20 496.21 L 190.67 494.99 L 189.37 494.15 L 188.54 491.78 L 187.80 489.49 L 187.39 488.27 L 186.15 487.63 L 184.81 487.14 L 182.55 488.13 L 180.69 488.89 L 179.32 488.97 L 177.35 486.63 L 175.77 484.09 L 173.90 481.89 L 172.66 480.78 L 170.46 480.68 L 167.97 479.43 L 164.65 476.61 L 162.25 474.51 L 158.11 472.17 L 157.15 471.19 L 156.78 470.36 L 156.21 468.72 L 155.35 467.16 L 152.41 466.48 L 149.09 466.00 L 145.60 466.95 L 143.07 471.61 L 141.86 472.63 L 140.82 472.69 L 139.97 471.50 L 139.26 470.25 L 138.87 468.87 L 137.13 467.85 L 135.16 466.52 L 134.15 465.48 L 133.01 464.83 L 131.95 464.55 L 129.91 463.67 L 127.59 462.68 L 126.51 462.55 L 126.43 461.84 L 126.76 460.35 L 126.56 458.91 L 125.86 458.32 L 124.80 458.47 L 122.36 456.44 L 122.26 456.41 L 122.23 456.33 L 121.54 455.75 L 120.33 454.92 L 118.30 454.98 L 116.76 455.29 L 115.64 454.43 L 114.01 453.09 L 113.72 452.79 L 113.24 452.30 L 111.58 449.70 L 109.63 446.63 L 108.64 446.18 L 108.13 446.41 L 107.56 448.04 L 107.12 447.88 L 106.40 447.99 L 105.54 448.56 L 104.72 448.71 L 104.19 448.54 L 103.97 448.14 L 104.20 445.98 L 103.71 445.31 L 104.15 443.82 L 104.89 442.52 L 104.13 441.56 L 103.19 440.19 L 103.09 438.95 L 103.60 437.38 L 103.84 436.04 L 103.69 435.55 L 102.94 434.80 L 100.11 431.12 L 99.96 430.73 L 99.48 429.51 L 99.26 427.66 L 98.89 426.33 L 98.46 425.32 L 98.49 424.84 L 98.81 424.60 L 100.59 424.35 L 102.22 424.19 L 103.30 423.85 L 103.86 424.58 L 104.12 425.71 L 104.40 426.31 L 105.44 427.38 L 106.70 428.40 L 107.93 428.27 L 109.00 427.83 L 109.94 426.16 L 110.61 425.75 L 111.38 425.68 L 111.37 425.55 L 111.33 424.48 L 111.60 421.82 L 111.51 420.76 L 111.16 419.80 L 111.22 418.74 L 111.11 417.19 L 110.23 416.13 L 109.65 415.73 L 109.56 415.16 L 109.86 414.10 L 110.07 412.88 L 109.71 411.84 L 109.00 411.38 L 108.16 410.60 L 107.16 409.55 L 106.66 408.78 L 105.86 407.93 L 104.88 406.62 L 104.69 403.75 L 104.60 400.73 L 104.25 399.22 L 103.71 396.82 L 103.78 396.02 L 104.12 395.41 L 106.90 393.48 L 107.50 392.73 L 107.60 392.16 L 107.50 391.31 L 106.97 390.37 L 105.86 389.63 L 104.27 388.44 L 102.84 387.19 L 100.42 386.44 L 97.48 385.51 L 96.78 384.60 L 96.07 382.39 L 94.86 379.02 L 93.57 375.43 L 92.58 373.21 L 92.53 372.15 L 93.13 369.43 L 93.06 368.85 L 92.54 368.65 L 91.55 369.00 L 90.76 369.44 L 90.08 369.21 L 89.45 368.76 L 89.32 368.60 L 89.27 368.54 L 88.10 368.83 L 85.74 369.00 L 84.92 368.97 L 83.77 368.93 L 81.41 368.31 L 78.22 367.47 L 74.94 366.30 L 73.19 365.38 L 72.58 365.05 L 71.09 364.09 L 70.03 363.25 L 69.84 361.08 L 69.07 361.25 L 67.26 362.03 L 65.17 362.53 L 64.02 362.54 L 63.55 362.19 L 62.86 359.89 L 62.36 359.25 L 61.42 358.99 L 60.40 358.59 L 59.89 357.99 L 59.77 357.24 L 60.23 356.37 L 60.76 355.70 L 60.85 351.63 L 60.50 350.18 L 60.21 348.97 L 59.46 347.46 L 58.77 346.53 L 57.71 345.67 L 56.07 344.77 L 54.62 344.44 L 52.85 345.09 L 52.29 344.84 L 51.55 342.07 L 51.08 341.50 L 47.94 340.36 L 46.52 340.09 L 44.89 340.45 L 43.96 340.75 L 43.21 340.25 L 42.04 339.60 L 40.89 339.16 L 39.46 339.15 L 38.54 339.42 L 38.31 339.26 L 37.87 338.75 L 35.97 337.23 L 35.91 336.84 L 38.82 335.33 L 40.53 334.76 L 41.43 334.30 L 41.62 334.40 L 42.06 335.09 L 43.20 335.55 L 43.99 335.43 L 44.41 335.08 L 45.81 334.25 L 46.91 333.28 L 47.53 332.49 L 47.20 331.24 L 45.47 329.73 L 44.37 328.92 L 44.04 328.37 L 44.32 326.73 L 44.72 325.11 L 44.46 324.49 L 44.13 323.96 L 43.98 322.18 L 43.23 320.04 L 42.41 318.79 L 42.18 317.11 L 42.13 315.53 L 43.13 313.06 L 42.76 311.99 L 41.71 311.04 L 38.12 309.32 L 34.43 308.18 L 33.03 308.22 L 32.16 308.15 L 31.13 309.16 L 30.51 310.47 L 29.65 310.59 L 28.08 310.03 L 27.03 309.19 L 26.29 307.43 L 25.70 305.18 L 25.38 304.47 L 25.55 303.86 L 25.91 303.32 L 26.91 302.81 L 27.08 302.29 L 26.93 301.65 L 26.12 300.84 L 25.29 299.70 L 24.00 297.32 L 24.25 296.01 L 24.45 294.12 L 24.38 293.13 L 25.69 292.87 L 27.36 292.36 L 28.13 291.52 L 28.67 290.65 L 28.78 290.12 L 28.28 288.06 L 27.62 287.14 L 27.55 286.43 L 27.88 285.88 L 28.32 284.94 L 29.16 283.02 L 29.98 281.79 L 30.43 281.48 L 31.44 281.19 L 33.89 280.86 L 36.53 280.00 L 39.66 277.42 L 40.70 276.69 L 42.07 276.32 L 43.04 276.35 L 43.22 276.03 L 42.59 274.44 L 42.74 273.86 L 43.12 273.41 L 43.59 273.20 L 45.75 274.04 L 47.42 273.95 L 49.44 273.45 L 53.79 270.64 L 54.33 270.69 L 54.77 271.06 L 55.30 272.76 L 55.90 276.33 L 56.23 276.78 L 59.26 276.83 L 61.32 275.53 L 62.22 275.22 L 63.69 275.43 L 64.46 274.82 L 65.27 274.39 L 66.21 275.89 L 67.42 275.18 L 68.73 274.04 L 69.36 272.86 L 70.25 271.59 L 70.94 269.98 L 71.21 268.45 L 71.55 267.74 L 72.28 267.00 L 74.08 263.87 L 75.39 263.07 L 76.61 262.79 L 79.66 263.33 L 81.24 263.26 L 85.88 263.67 L 88.02 263.07 L 89.52 262.47 L 91.71 262.57 L 94.31 262.09 L 97.78 258.17 L 97.82 257.33 L 98.03 256.44 L 99.29 255.57 L 100.85 254.77 L 103.95 252.85 L 110.27 249.82 L 112.53 248.60 L 113.48 248.63 L 115.81 247.87 L 119.89 246.39 L 121.05 244.54 L 122.12 244.17 L 126.90 243.84 L 127.19 243.63 L 127.36 243.32 L 127.10 241.98 L 126.79 240.83 L 127.16 240.49 L 127.56 239.97 L 127.50 239.23 L 126.73 236.84 L 126.32 234.57 L 126.05 232.52 L 126.10 231.76 L 126.68 230.44 L 127.43 229.25 L 130.13 228.13 L 131.92 227.79 L 132.00 227.06 L 130.55 226.61 L 129.50 225.88 L 129.31 225.46 L 129.36 224.99 L 129.61 224.56 L 131.43 223.74 L 133.14 222.93 L 135.23 223.42 L 135.64 223.11 L 135.76 222.30 L 135.32 221.48 L 134.89 220.15 L 133.93 219.46 L 133.89 218.64 L 134.49 217.23 L 133.66 214.62 L 132.77 212.31 L 131.25 208.36 L 130.25 207.22 L 129.69 205.40 L 129.06 204.45 L 129.12 203.03 L 129.22 202.04 L 129.06 200.07 L 128.77 197.94 L 129.06 195.77 L 129.62 194.34 L 129.47 193.80 L 129.77 193.39 L 130.62 193.25 L 131.03 192.67 L 130.62 192.07 L 129.15 191.61 L 127.50 190.88 L 125.52 190.97 L 123.49 191.09 L 122.47 190.56 L 121.59 189.88 L 121.54 189.44 L 122.76 188.29 L 124.45 187.10 L 127.08 186.57 L 129.99 185.79 L 131.46 185.22 L 133.41 184.81 L 135.68 184.64 L 136.82 184.76 L 139.73 184.00 L 144.31 182.53 L 148.47 181.29 L 149.87 180.56 L 150.92 181.29 L 151.40 182.91 L 152.61 183.75 L 153.81 184.15 L 154.50 184.14 L 156.58 183.51 L 158.82 183.04 L 159.71 183.30 L 160.85 184.12 L 162.12 184.87 L 162.79 184.83 L 163.37 184.26 L 163.96 183.10 L 164.34 181.63 L 164.41 180.08 L 164.19 179.13 L 163.74 178.78 L 161.70 178.22 L 159.76 177.30 L 159.53 176.47 L 159.58 175.87 L 160.09 174.41 L 161.36 171.73 L 162.64 168.03 L 163.31 165.12 L 165.45 160.77 L 167.13 156.23 L 169.85 149.72 L 170.30 148.43 L 170.55 146.37 L 170.70 145.52 L 171.65 145.07 L 173.25 145.51 L 177.15 146.99 L 180.11 148.24 L 181.36 148.67 L 183.20 149.11 L 186.06 149.63 L 187.71 149.48 L 189.16 149.17 L 191.09 149.14 L 194.10 149.53 L 195.03 149.55 L 196.19 149.59 L 197.01 150.22 L 197.42 151.66 L 198.05 152.30 L 199.17 152.06 L 201.57 150.80 L 203.10 149.81 L 205.01 148.37 L 206.91 148.18 L 208.93 147.86 L 209.63 147.14 L 210.37 145.47 L 211.60 144.21 L 211.81 142.61 L 211.37 141.49 L 210.51 139.65 L 210.54 138.41 L 210.12 134.83 L 209.57 131.60 L 210.13 129.00 L 211.13 126.10 L 211.52 125.21 L 212.16 124.04 L 213.05 122.64 L 214.30 122.20 L 217.82 121.91 L 221.08 121.32 L 222.75 120.71 L 224.47 120.35 L 225.50 119.90 L 227.28 117.86 L 228.13 116.69 L 228.75 113.57 L 228.29 112.07 L 228.67 110.74 L 229.53 109.96 L 230.74 109.18 L 231.55 109.05 L 233.27 108.81 L 236.10 108.89 L 237.54 109.27 L 239.01 109.45 L 239.93 109.17 L 240.55 108.58 L 241.49 108.39 L 242.92 108.10 L 244.39 107.75 L 245.20 107.82 L 245.37 108.69 L 245.23 109.38 L 245.51 110.30 L 246.10 110.91 L 245.91 111.57 L 245.08 111.95 L 244.27 112.47 L 244.09 113.17 L 245.12 114.05 L 245.47 114.89 L 247.19 115.39 L 248.52 115.96 L 249.02 116.50 L 248.87 117.11 L 248.25 117.77 L 247.66 118.48 L 247.58 118.90 L 247.77 119.40 L 249.06 119.73 L 250.55 120.28 L 252.91 120.98 L 254.53 122.29 L 256.14 122.65 L 256.91 123.93 L 257.06 125.79 L 258.70 126.74 L 261.14 128.05 L 262.38 128.29 L 263.21 129.04 L 264.40 129.94 L 265.46 130.22 L 266.71 130.35 L 268.79 129.52 L 271.12 129.44 L 272.39 129.91 L 273.60 131.72 L 274.45 132.30 L 274.95 132.80 L 275.77 133.29 L 276.60 133.36 L 277.83 132.96 L 278.58 132.16 L 279.66 132.32 L 280.07 132.84 L 280.26 133.74 L 280.83 134.85 L 282.20 135.67 L 284.10 136.17 L 284.37 136.57 L 284.64 137.68 L 285.15 138.45 L 285.85 139.45 L 286.50 141.28 L 286.64 142.79 L 286.95 143.63 L 287.84 144.98 L 289.24 147.15 L 290.37 148.99 L 291.67 149.35 L 292.77 149.94 L 293.40 151.29 L 294.57 153.86 L 294.76 155.53 L 294.86 156.78 L 295.25 157.35 L 295.32 158.05 L 294.35 160.74 L 293.52 161.96 L 293.42 162.98 L 293.98 164.76 L 294.75 166.14 L 294.82 167.46 L 294.17 168.43 L 293.04 169.64 L 292.50 170.33 L 291.62 170.94 L 290.28 173.28 L 289.67 175.87 L 289.53 177.20 L 290.04 178.17 L 290.90 179.23 L 291.11 180.15 L 292.51 182.21 L 292.88 183.48 L 293.46 183.52 L 294.07 183.10 L 295.57 183.08 L 296.94 183.52 L 298.25 184.47 L 299.66 184.97 L 301.66 184.84 L 302.74 185.35 L 303.89 185.76 L 306.28 185.91 L 308.07 185.90 L 310.83 185.92 L 313.05 186.55 L 316.96 187.05 L 319.38 187.01 L 322.63 186.54 L 324.63 186.84 L 330.52 187.54 L 333.97 188.28 L 336.16 189.11 L 337.69 190.43 L 339.45 192.48 L 340.85 193.42 L 344.61 193.99 L 347.18 196.39 L 349.20 197.29 L 352.59 199.61 L 354.99 200.51 L 357.85 201.35 L 362.53 201.00 L 362.79 201.31 L 362.42 202.57 L 362.14 204.30 L 362.14 205.55 L 362.62 206.19 L 364.41 206.56 L 365.26 207.18 L 365.91 208.36 L 366.28 209.09 L 367.78 212.71 L 370.18 218.06 L 370.46 220.11 L 371.28 221.44 L 373.89 223.54 L 375.27 225.10 L 377.31 226.74 L 377.98 228.25 L 378.13 230.21 L 378.64 230.71 L 382.38 230.27 L 385.61 229.95 L 391.42 229.39 L 399.41 230.41 L 407.65 231.40 L 414.94 232.27 L 418.53 232.70 L 426.64 233.62 L 431.15 232.45 L 434.67 231.53 L 436.27 231.66 L 443.00 232.69 L 446.95 233.24 L 451.92 233.94 L 455.38 234.20 L 458.20 234.18 L 459.51 234.47 L 460.77 234.92 L 461.61 235.57 L 464.19 238.88 L 465.64 240.34 L 468.50 241.44 L 475.02 242.70 L 478.62 243.46 L 482.76 244.34 L 485.49 245.67 L 488.63 247.21 L 492.70 249.20 L 497.16 248.33 L 501.95 247.39 L 504.96 246.80 L 504.96 250.97 L 509.25 251.30 L 510.60 251.25 L 512.49 252.17 L 513.56 251.78 L 514.57 250.88 L 515.84 249.45 L 517.66 248.83 L 520.82 247.23 L 521.59 246.84 L 526.28 244.57 L 533.28 241.77 L 536.42 240.42 L 537.36 240.12 L 539.13 239.43 L 540.33 238.95 L 542.45 238.56 L 545.32 238.32 L 548.46 237.79 L 555.57 236.81 L 556.46 236.71 L 560.45 236.31 L 562.14 235.92 L 564.68 236.12 L 567.99 236.27 L 570.18 236.52 L 573.09 236.32 L 577.10 236.05 L 580.34 236.09 L 581.95 235.76 L 584.32 234.72 L 585.92 233.89 L 588.42 232.89 L 591.52 231.85 L 593.68 230.91 L 595.11 230.29 L 596.85 229.70 L 597.31 228.94 L 597.81 228.35 L 598.73 227.38 L 600.39 225.56 L 601.65 223.97 L 602.27 223.27 L 603.69 221.68 L 604.84 220.48 L 606.30 218.87 L 607.53 218.34 L 609.10 217.90 L 613.21 216.32 L 614.03 215.98 L 614.71 215.91 L 616.16 214.63 L 617.39 213.53 L 618.19 212.70 L 619.86 212.40 L 620.72 211.81 L 620.87 211.02 L 620.69 209.83 L 619.89 208.61 L 619.22 207.55 L 616.83 205.52 L 615.57 204.26 L 614.28 202.64 L 613.76 201.12 L 612.88 200.15 L 612.45 199.29 L 612.58 198.30 L 613.81 196.54 L 614.20 195.43 L 614.71 193.46 L 615.86 190.52 L 616.80 189.15 L 617.88 187.80 L 620.17 186.00 L 622.26 185.67 L 623.51 186.02 L 626.30 186.02 L 628.16 186.11 L 629.53 187.01 L 631.05 188.79 L 632.76 189.45 L 638.10 190.84 L 640.38 191.14 L 642.01 191.20 L 644.42 191.66 L 645.23 191.76 L 646.47 192.07 L 647.49 191.74 L 649.04 190.54 L 650.98 189.20 L 651.82 188.90 L 653.37 188.32 L 654.15 187.77 L 655.50 186.27 L 657.27 185.11 L 659.42 183.36 L 660.48 182.04 L 660.72 181.19 L 660.95 180.27 L 661.62 179.78 L 662.93 179.34 L 664.40 179.22 L 667.21 180.01 L 671.00 179.78 L 671.85 179.66 L 675.31 179.21 L 676.86 178.84 L 679.07 178.48 L 680.75 177.02 L 683.01 175.28 L 684.65 174.31 L 685.75 174.12 L 687.11 173.12 L 687.78 172.04 L 687.60 171.09 L 687.35 170.30 L 688.15 168.85 L 689.60 166.30 L 690.96 165.12 L 692.08 164.16 L 692.79 162.62 L 693.68 162.17 L 694.76 162.00 L 696.29 160.96 L 697.41 160.74 L 699.27 161.24 L 702.03 161.37 L 703.79 161.43 L 704.79 161.24 L 705.16 160.68 L 705.15 159.81 L 705.71 157.89 L 705.92 157.25 L 706.42 156.96 L 708.12 156.92 L 709.27 157.61 L 710.05 158.19 L 711.14 158.26 L 712.27 157.89 L 713.78 156.33 L 716.28 155.43 L 717.62 155.20 L 719.98 154.47 L 721.47 154.73 L 724.21 154.95 L 725.27 154.76 L 726.43 154.95 L 727.48 153.89 L 728.31 153.64 L 730.08 154.13 L 731.19 154.94 L 733.27 155.96 L 735.91 156.43 L 738.12 156.19 L 740.40 156.62 L 741.75 156.58 L 742.38 156.18 L 744.24 155.32 L 744.69 154.16 L 744.51 153.05 L 744.72 151.78 L 744.17 150.85 L 743.02 149.47 L 742.57 148.55 L 742.53 147.35 L 741.82 146.21 L 740.09 144.82 L 738.95 144.19 L 736.61 141.80 L 735.82 141.24 L 735.55 140.85 L 735.27 140.05 L 734.41 139.67 L 733.27 139.05 L 732.66 138.41 L 732.26 137.31 L 732.02 136.59 L 731.02 135.99 L 730.01 135.66 L 728.88 135.23 L 727.01 134.61 L 725.92 133.38 L 724.01 131.07 L 722.93 130.30 L 718.90 130.00 L 717.46 129.44 L 715.83 129.63 L 714.85 130.00 L 712.69 129.99 L 711.57 130.22 L 710.14 131.74 L 708.25 133.72 L 706.69 134.92 L 705.58 136.18 L 705.07 136.62 L 704.06 136.35 L 702.67 134.94 L 700.69 133.68 L 698.85 133.11 L 698.07 132.79 L 695.88 132.47 L 694.19 132.57 L 692.03 133.05 L 689.92 132.96 L 688.97 132.66 L 687.63 132.69 L 685.20 134.00 L 683.94 135.50 L 682.45 135.96 L 681.10 134.98 L 679.55 133.83 L 678.06 132.38 L 677.15 131.04 L 676.64 127.49 L 678.42 126.44 L 680.70 125.25 L 680.87 123.38 L 680.79 121.30 L 681.24 118.98 L 683.32 116.84 L 684.43 115.07 L 684.57 113.96 L 685.56 112.13 L 686.52 110.20 L 687.82 107.66 L 690.30 103.16 L 693.22 97.85 L 694.67 95.20 L 697.88 96.84 L 699.94 97.69 L 703.43 98.99 L 707.03 99.29 L 710.48 100.69 L 712.26 101.11 L 713.20 101.12 L 718.08 97.69 L 722.20 94.80 L 726.94 92.54 L 730.42 92.24 L 733.04 91.58 L 734.79 90.57 L 735.82 88.88 L 736.13 86.51 L 735.44 85.08 L 733.73 84.59 L 733.29 84.09 L 734.12 83.58 L 734.73 82.60 L 735.11 81.13 L 736.10 79.74 L 737.68 78.43 L 738.56 76.97 L 738.72 75.37 L 739.67 73.77 L 741.41 72.18 L 742.36 70.70 L 742.52 69.33 L 743.40 67.66 L 745.80 64.70 L 747.35 61.30 L 750.00 58.96 L 754.26 56.57 L 756.92 54.19 L 757.99 51.84 L 757.90 49.76 L 756.67 47.96 L 756.44 46.12 L 757.20 44.26 L 756.53 42.87 L 754.43 41.94 L 751.92 41.72 L 749.00 42.18 L 747.36 41.60 L 747.00 39.98 L 747.78 38.66 L 749.71 37.65 L 752.87 35.21 L 757.28 31.32 L 761.66 29.17 L 768.20 28.55 L 773.47 27.28 L 778.84 25.99 L 782.71 25.35 L 783.37 25.78 L 785.48 25.88 L 789.05 25.66 L 792.36 25.10 L 795.42 24.21 L 797.84 24.00 L 799.62 24.47 L 800.64 24.50 L 801.35 24.56 L 801.74 24.55 L 802.48 24.17 L 804.56 24.85 L 808.51 26.86 L 810.99 27.76 L 812.02 27.54 L 813.13 28.10 L 814.34 29.43 L 815.85 30.22 L 818.55 30.58 L 821.24 32.05 L 822.33 32.12 L 822.71 31.31 L 823.71 30.84 L 825.33 30.71 L 827.67 31.44 L 830.74 33.00 L 832.66 33.69 L 833.44 33.50 L 834.27 33.79 L 834.93 34.53 L 834.99 35.43 L 834.76 35.92 L 835.50 36.68 L 836.35 36.68 L 837.74 37.05 L 838.82 38.40 L 839.80 39.03 L 840.48 39.57 L 840.60 40.02 L 840.67 40.48 L 840.46 40.83 L 840.09 41.41 L 839.98 42.04 L 840.44 42.74 L 842.17 43.25 L 842.76 43.77 L 842.89 44.45 L 843.43 45.19 L 844.60 46.05 L 845.05 46.77 L 844.78 47.35 L 845.12 47.84 L 845.70 48.21 L 845.83 49.59 L 845.88 50.38 L 846.82 51.27 L 847.02 53.08 L 847.68 55.09 L 849.91 57.85 L 850.64 59.34 L 850.45 61.12 L 850.77 61.95 L 851.79 62.36 L 852.27 63.11 L 852.21 64.21 L 852.61 64.89 L 852.93 65.62 L 852.71 66.75 L 853.03 67.77 L 853.55 68.37 L 853.92 69.47 L 854.13 70.85 L 855.62 73.02 L 858.39 76.01 L 860.08 78.33 L 860.70 79.98 L 860.70 81.34 L 860.10 82.41 L 860.06 83.18 L 860.61 83.67 L 860.77 84.32 L 860.55 85.15 L 861.45 86.14 L 864.49 87.85 L 863.28 90.47 L 862.96 92.31 L 863.12 94.25 L 863.87 95.61 L 865.21 96.41 L 866.04 97.24 L 866.37 98.10 L 867.98 99.04 L 870.86 100.06 L 874.56 100.24 L 879.07 99.57 L 881.83 99.46 L 882.84 99.90 L 883.18 100.57 L 882.86 101.47 L 883.63 102.06 L 885.48 102.35 L 886.75 102.91 L 887.45 103.76 L 888.31 104.00 L 889.32 103.64 L 890.31 103.69 L 891.26 104.16 L 891.89 104.00 L 892.43 103.48 L 893.30 103.48 L 894.19 103.49 L 894.75 104.74 L 895.65 105.44 L 896.89 105.60 L 898.78 107.12 L 902.59 111.44 L 905.06 112.98 L 907.54 113.46 L 910.62 113.56 L 911.62 115.24 L 910.81 117.01 L 910.60 118.50 L 911.31 119.03 L 912.27 120.77 L 913.64 121.78 L 913.90 122.58 L 914.53 123.47 L 914.26 125.13 L 913.10 127.55 L 913.41 129.62 L 915.22 131.34 L 916.26 132.99 L 916.53 134.57 L 916.98 135.53 L 917.62 135.88 L 919.48 135.76 L 922.55 135.18 L 924.81 135.28 L 926.25 136.06 L 929.80 136.08 L 935.48 135.37 L 939.07 135.15 L 940.56 135.43 L 941.90 134.41 L 943.06 132.09 L 944.16 131.00 L 945.18 131.13 L 946.80 130.39 L 949.03 128.76 L 950.96 127.97 L 953.41 128.05 L 956.01 128.14 L 957.64 127.45 L 959.18 126.03 L 961.83 124.77 L 967.49 123.12 L 968.85 122.87 L 969.50 122.95 L 971.39 123.21 L 973.06 123.85 L 974.64 125.15 L 974.89 125.97 L 974.71 127.06 L 974.36 127.70 L 973.71 128.41 L 973.10 129.56 L 973.49 130.46 L 974.41 132.39 L 975.16 133.78 L 976.00 135.42 L 975.62 136.01 L 975.12 137.15 L 973.57 139.07 L 972.72 139.81 L 971.81 140.53 L 970.24 140.71 L 969.57 140.87 L 968.81 141.18 L 968.34 141.86 L 967.79 142.34 L 966.90 143.30 L 966.82 144.13 L 967.23 145.36 L 967.43 146.62 L 966.42 147.75 L 965.63 149.48 L 965.40 150.01 L 965.00 151.32 L 964.89 151.77 L 964.64 154.54 L 963.62 156.43 L 962.21 158.62 L 962.52 159.93 L 962.77 161.14 L 962.42 161.73 L 962.34 162.25 L 962.13 163.42 L 961.68 163.87 L 960.40 164.60 L 959.63 165.48 L 959.79 166.82 L 959.39 167.97 L 958.80 169.00 L 958.18 169.67 L 957.30 170.09 L 956.71 170.46 L 956.26 171.76 L 956.12 172.77 L 955.71 173.77 L 955.97 174.80 L 955.51 175.69 L 954.25 176.31 L 953.54 176.67 L 952.87 176.82 L 951.61 177.78 L 950.48 181.09 L 950.23 183.02 L 950.48 184.73 L 948.90 185.80 L 947.72 186.65 L 946.99 186.34 L 946.21 186.06 L 944.41 185.69 L 943.51 185.44 L 941.70 184.88 L 938.80 184.17 L 935.97 183.35 L 934.20 182.91 L 932.80 182.57 L 931.73 182.00 L 930.84 180.99 L 929.95 181.40 L 929.13 182.59 L 927.76 183.31 L 927.14 184.62 L 926.59 185.63 L 925.17 186.97 L 924.54 187.53 L 921.75 188.44 L 921.13 188.75 L 918.86 188.94 L 918.09 189.34 L 917.29 190.19 L 917.08 191.04 L 917.64 191.93 L 918.52 193.72 L 918.93 194.94 L 919.54 197.35 L 921.55 204.94 L 920.90 206.25 L 920.29 211.93 L 920.44 212.96 L 920.38 214.56 L 920.42 215.73 L 920.83 216.02 L 921.38 216.43 L 921.65 217.12 L 921.58 218.17 L 921.30 218.94 L 920.88 220.46 L 920.31 222.67 L 919.69 223.52 L 919.27 224.19 L 918.92 224.65 L 918.88 226.21 L 918.65 227.24 L 917.66 227.61 L 916.69 228.21 L 915.53 227.99 L 914.52 228.11 L 913.26 228.51 L 911.00 228.97 L 909.68 229.59 L 909.06 230.05 L 908.62 230.59 L 908.55 231.11 L 908.85 231.38 L 910.11 231.59 L 910.98 232.57 L 911.11 233.63 L 910.21 234.24 L 909.77 233.57 L 909.02 233.36 L 907.62 232.42 L 906.61 231.39 L 905.85 230.25 L 905.88 227.81 L 905.75 227.44 L 904.36 226.94 L 903.95 226.22 L 903.29 225.87 L 902.35 226.09 L 901.65 225.86 L 901.09 225.46 L 900.42 225.41 L 899.84 226.05 L 899.54 227.40 L 898.57 229.64 L 898.48 231.00 L 898.06 232.94 L 897.64 235.39 L 897.30 235.91 L 896.22 235.98 L 895.84 236.14 L 895.28 236.98 L 894.59 237.12 L 893.99 236.63 L 893.03 236.14 L 892.13 236.08 L 891.32 236.57 L 890.37 237.63 L 889.83 238.49 L 889.64 239.30 L 889.48 240.29 L 888.52 241.24 L 887.64 241.74 L 885.83 243.14 L 885.25 243.73 L 883.95 243.73 L 882.53 243.68 L 880.63 244.06 L 877.52 244.25 L 875.66 243.97 L 873.36 244.24 L 871.57 244.70 L 871.32 245.38 L 871.38 246.39 L 871.74 247.06 L 872.18 247.50 L 872.92 248.86 L 873.70 250.18 L 874.88 251.03 L 875.37 251.95 L 875.40 252.80 L 874.84 253.87 L 873.99 255.27 L 873.20 256.14 L 872.60 256.11 L 871.69 255.61 L 871.07 254.97 L 869.60 254.74 L 866.01 255.14 L 864.21 254.86 L 863.35 254.34 L 861.84 254.31 L 859.52 253.62 L 858.10 253.40 L 857.43 252.96 L 857.30 251.95 L 856.63 251.25 L 856.25 250.42 L 855.41 249.38 L 854.60 248.85 L 853.80 248.63 L 852.92 249.26 L 851.99 249.83 L 851.30 249.71 L 850.96 249.86 L 850.58 250.33 L 849.09 251.31 L 848.73 252.20 L 848.14 254.08 L 847.73 256.02 L 847.37 256.70 L 846.76 256.82 L 846.14 257.40 L 844.85 259.23 L 843.68 260.91 L 841.98 262.04 L 841.18 263.08 L 840.77 264.03 L 839.56 265.35 L 837.78 265.59 L 836.37 265.98 L 835.50 266.08 L 834.88 266.61 L 834.42 267.43 L 834.20 267.75 L 833.41 267.75 L 832.61 268.45 L 830.65 270.02 L 829.06 270.31 L 827.06 271.37 L 825.30 272.17 L 824.56 272.62 L 824.37 273.11 L 824.11 273.75 L 823.26 273.87 L 822.44 273.84 L 820.61 275.29 L 819.68 276.52 L 816.08 279.15 L 814.61 280.62 L 814.23 282.54 L 814.04 282.39 L 812.76 284.06 L 810.24 285.65 L 804.86 286.00 L 803.16 284.87 L 802.54 285.65 L 802.06 286.69 L 800.65 287.04 L 798.44 287.14 L 797.21 287.82 L 796.55 288.59 L 793.52 288.84 L 792.41 289.86 L 790.53 290.23 L 782.67 294.71 L 780.95 296.59 L 779.33 298.79 L 778.19 299.90 L 777.18 300.68 L 776.25 300.99 L 775.34 301.76 L 774.42 301.85 L 773.48 301.51 L 772.43 301.63 L 771.73 302.55 L 772.32 303.75 L 772.00 304.26 L 769.93 304.92 L 766.87 305.35 L 765.56 306.14 L 765.11 306.58 L 764.43 306.81 L 763.78 305.25 L 763.54 303.20 L 764.81 302.71 L 765.98 302.45 L 772.47 299.62 L 771.65 297.49 L 772.23 296.56 L 773.68 295.06 L 774.63 294.32 L 774.11 294.04 L 769.86 294.54 L 767.42 294.50 L 766.17 294.35 L 766.55 293.06 L 766.34 291.78 L 766.05 291.30 L 768.21 289.84 L 769.19 289.48 L 769.94 289.50 L 769.89 288.62 L 769.27 287.29 L 769.94 285.57 L 774.35 283.56 L 775.41 281.73 L 777.18 280.02 L 780.42 275.78 L 780.62 275.06 L 781.56 273.07 L 781.73 272.28 L 780.23 271.11 L 779.64 269.48 L 775.25 266.55 L 774.88 264.03 L 774.47 264.14 L 773.80 265.90 L 773.24 266.47 L 771.21 266.52 L 770.24 265.85 L 764.60 265.42 L 763.22 266.56 L 761.93 268.32 L 760.67 269.58 L 759.41 270.23 L 758.31 271.37 L 753.77 278.21 L 752.06 278.72 L 743.98 282.85 L 739.95 284.47 L 736.83 287.33 L 735.76 289.07 L 734.81 290.99 L 734.24 293.91 L 731.37 297.45 L 730.38 298.21 L 729.38 298.52 L 728.04 298.41 L 726.89 298.63 L 724.93 298.32 L 722.52 299.44 L 719.81 300.41 L 717.48 297.97 L 715.81 297.36 L 713.08 298.04 L 711.82 299.13 L 709.21 304.50 L 708.23 307.58 L 708.29 308.84 L 709.82 312.68 L 711.54 314.82 L 715.41 317.27 L 723.63 318.96 L 725.56 318.36 L 727.63 318.35 L 729.81 319.95 L 731.17 322.60 L 731.30 324.41 L 731.34 325.03 L 731.84 325.56 L 732.13 326.48 L 731.26 327.24 L 730.60 327.61 L 730.04 330.42 L 730.01 333.53 L 730.71 334.56 L 732.48 336.01 L 735.22 337.21 L 737.75 337.47 L 742.58 336.89 L 744.56 335.01 L 744.44 334.20 L 744.49 333.15 L 748.74 330.40 L 751.16 327.97 L 750.78 327.32 L 750.32 326.89 L 750.74 326.64 L 752.08 326.47 L 757.99 323.94 L 762.65 326.01 L 765.30 328.40 L 767.92 328.80 L 769.75 330.02 L 771.85 331.06 L 774.59 331.13 L 776.90 331.35 L 777.61 330.39 L 778.33 329.76 L 779.16 329.88 L 780.09 331.14 L 782.71 332.11 L 785.13 332.06 L 786.83 331.71 L 787.84 332.16 L 786.38 333.78 L 786.60 336.39 L 785.48 337.22 L 784.41 338.55 L 785.04 339.42 L 785.60 339.80 L 785.54 340.86 L 784.57 341.47 L 782.76 343.05 L 781.72 343.02 L 781.22 342.71 L 780.87 342.14 L 780.62 341.24 L 779.98 340.64 L 778.22 340.40 L 776.40 340.62 L 772.31 342.97 L 768.31 344.84 L 764.12 346.32 L 762.72 347.26 L 761.73 347.52 L 759.99 346.81 L 758.94 346.85 L 758.72 347.34 L 760.05 348.64 L 760.40 349.67 L 760.26 350.45 L 759.50 350.80 L 758.40 350.22 L 757.39 351.04 L 756.93 352.42 L 756.91 355.71 L 756.24 356.45 L 754.40 356.85 L 752.43 357.90 L 751.73 357.41 L 751.45 356.82 L 751.66 355.31 L 751.42 354.57 L 750.52 354.61 L 749.17 355.06 L 748.13 356.06 L 747.78 356.66 L 749.14 358.59 L 750.43 358.79 L 750.75 359.22 L 749.72 360.17 L 747.16 361.57 L 746.74 362.75 L 745.98 363.88 L 744.94 364.78 L 744.23 365.72 L 743.36 366.22 L 741.95 366.77 L 740.22 369.04 L 738.94 371.16 L 737.43 372.25 L 736.24 375.83 L 734.10 377.78 L 733.32 380.89 L 733.87 382.80 L 736.21 382.78 L 737.39 383.46 L 739.82 385.97 L 742.73 387.61 L 745.75 388.54 L 749.45 390.87 L 750.47 391.85 L 751.34 393.86 L 752.94 399.63 L 754.09 402.49 L 754.17 403.98 L 755.90 406.80 L 757.75 411.64 L 759.88 415.84 L 760.28 419.15 L 759.59 420.66 L 759.60 422.62 L 761.73 424.42 L 766.45 426.51 L 767.20 427.13 L 768.13 428.14 L 768.17 431.30 L 768.90 432.31 L 769.52 432.93 L 772.38 434.26 L 773.58 435.37 L 774.84 437.15 L 775.22 438.74 L 775.37 440.89 L 773.77 440.97 L 772.48 440.73 L 767.36 437.93 L 766.03 437.86 L 764.15 438.24 L 761.47 437.73 L 758.64 434.63 L 756.60 433.69 L 754.41 433.22 L 749.18 435.88 L 747.85 435.69 L 747.46 435.99 L 746.87 436.45 L 749.30 437.02 L 751.72 436.15 L 754.05 434.86 L 757.45 435.55 L 758.02 436.71 L 758.58 438.67 L 760.91 440.00 L 762.74 440.59 L 765.07 442.33 L 767.35 445.05 L 772.17 448.21 L 774.12 451.21 L 774.87 453.14 L 775.55 455.90 L 773.86 456.79 L 772.39 456.91 L 770.10 457.35 L 768.41 458.32 L 766.71 460.04 L 761.85 462.74 L 760.92 464.43 L 760.29 465.90 L 759.10 466.63 L 756.12 465.93 L 753.32 465.99 L 750.14 467.98 L 749.34 468.79 L 749.87 468.63 L 750.37 468.37 L 751.80 468.67 L 754.01 467.61 L 756.17 470.85 L 760.40 470.33 L 764.36 467.63 L 765.90 467.59 L 767.19 468.00 L 768.62 469.07 L 772.44 473.79 L 774.53 474.30 L 776.59 475.41 L 777.72 475.53 L 778.74 475.86 L 775.98 477.59 L 772.42 481.33 L 770.83 482.22 L 769.76 483.22 L 772.63 482.72 L 774.68 480.93 L 775.71 480.49 L 776.54 480.91 L 776.96 483.11 L 776.17 489.89 L 775.17 490.01 L 774.20 488.16 L 773.05 487.58 L 772.10 487.96 L 770.19 487.95 L 769.47 488.78 L 768.85 489.96 L 769.99 490.21 L 772.24 492.27 L 772.46 493.36 L 771.86 494.07 L 770.29 493.77 L 772.20 495.30 L 771.69 496.90 L 771.07 497.53 L 769.97 497.93 L 769.28 499.31 L 770.26 501.61 L 771.26 504.55 L 771.38 505.97 L 769.82 505.36 L 767.40 507.16 L 766.12 507.31 L 765.26 504.94 L 764.15 505.32 L 763.41 506.00 L 762.43 508.55 L 761.24 510.84 L 760.21 511.47 L 758.97 511.29 L 757.95 511.36 L 758.20 511.98 L 759.28 512.73 L 759.28 513.62 L 756.98 516.42 L 756.61 517.50 L 756.66 518.43 L 755.46 519.55 L 756.11 521.43 L 755.77 522.76 L 754.72 524.55 L 753.61 525.74 L 752.30 527.66 L 750.65 528.77 L 748.47 532.80 L 747.83 534.81 L 747.66 536.89 L 746.98 537.61 L 745.81 538.52 L 744.48 538.06 L 744.44 536.67 L 743.86 536.55 L 743.53 535.64 L 743.43 534.49 L 743.58 533.56 L 743.02 533.84 L 742.68 534.92 L 741.80 535.80 L 740.89 535.45 L 739.90 534.73 L 739.93 535.77 L 740.45 536.81 L 740.68 537.85 L 742.05 538.08 L 742.96 539.27 L 743.68 541.11 L 743.83 541.80 L 744.39 542.63 L 744.46 543.33 L 743.16 543.98 L 741.53 545.19 L 739.57 547.27 L 737.95 548.66 L 736.50 548.67 L 735.62 548.51 L 734.36 547.71 L 732.91 547.38 L 734.85 550.18 L 735.91 550.68 L 737.25 550.57 L 738.54 549.53 L 740.38 549.64 L 740.84 551.25 L 740.35 553.08 L 739.35 555.45 L 739.14 557.50 L 740.38 560.44 L 740.43 561.32 L 739.97 561.76 L 738.52 560.99 L 737.31 560.01 L 736.10 560.27 L 734.84 559.85 L 733.55 560.20 L 733.02 560.88 L 733.38 561.99 L 734.54 562.92 L 735.19 564.35 L 734.41 564.85 L 731.13 564.52 L 730.39 564.79 L 729.41 566.36 L 730.05 568.69 L 729.33 570.14 L 727.97 570.48 L 726.19 571.65 L 725.09 571.92 L 725.14 572.42 L 725.94 572.93 L 726.37 573.62 L 725.40 576.00 L 723.90 576.79 L 721.59 576.40 L 719.77 576.93 L 718.20 575.92 L 716.53 575.90 L 715.39 577.18 L 715.27 578.66 L 714.16 578.81 L 713.57 578.70 L 712.72 578.81 L 712.81 579.61 L 713.29 580.31 L 715.55 580.62 L 715.96 581.62 L 716.05 583.16 L 713.68 585.83 L 712.67 587.62 L 711.15 587.58 L 710.00 589.02 L 709.39 590.97 L 708.62 590.59 L 706.87 590.90 L 706.35 591.83 L 706.76 592.22 L 706.80 592.89 L 706.10 595.09 L 705.33 595.71 L 705.00 594.81 L 704.75 593.41 L 704.13 593.31 L 703.11 594.59 L 701.91 595.51 L 700.89 595.90 L 700.11 595.04 L 698.21 594.60 L 697.44 598.29 L 695.86 599.64 L 695.12 600.06 L 693.83 600.19 L 694.66 600.69 L 694.92 601.64 L 694.45 602.58 L 693.16 602.77 L 692.42 603.51 L 692.13 606.81 L 691.36 607.97 L 689.41 608.06 L 687.96 607.29 L 687.49 607.90 L 687.25 608.49 L 686.49 609.08 L 685.01 609.24 L 681.73 610.72 L 680.23 610.30 L 678.44 609.73 L 677.20 610.28 L 676.79 611.42 L 676.22 612.30 L 674.42 612.30 L 672.98 611.21 L 671.51 610.42 L 669.89 611.10 L 668.65 612.49 L 667.13 612.95 L 666.85 613.81 L 666.19 614.25 L 664.58 614.07 L 663.97 611.92 L 663.04 611.61 L 662.12 612.69 L 661.80 613.54 L 661.37 614.18 L 661.52 615.92 L 660.62 615.96 L 659.44 614.89 L 658.20 614.70 L 657.04 615.69 L 656.45 615.45 L 655.83 615.24 L 654.81 615.24 L 654.42 615.50 L 653.68 615.66 L 653.18 616.20 L 653.14 616.25 L 651.82 615.88 L 650.22 614.43 L 649.07 612.02 L 647.62 610.72 L 646.97 609.58 L 646.72 607.53 L 646.45 606.56 L 646.55 605.47 L 646.99 604.50 L 645.42 604.99 L 644.26 605.89 L 644.49 607.02 L 644.21 608.07 L 642.48 608.62 L 642.59 609.06 L 642.69 609.52 L 644.05 610.95 L 644.33 612.16 L 644.87 612.81 L 645.94 614.68 L 645.91 618.30 L 646.49 619.33 L 646.30 620.34 L 645.88 621.72 L 645.84 621.74 L 645.53 621.32 L 645.02 621.41 L 644.82 621.87 L 644.78 622.28 L 644.70 622.31 L 643.80 622.61 L 643.05 622.87 L 642.43 623.24 L 641.47 624.32 L 639.65 624.58 L 638.71 622.05 L 637.45 623.74 L 637.07 627.19 L 636.61 627.78 L 635.83 628.28 L 634.35 627.07 L 633.05 627.88 L 632.04 628.70 L 631.63 629.45 L 630.89 630.27 L 629.46 629.48 L 628.32 628.29 L 628.60 627.40 L 628.44 626.81 L 627.92 626.37 L 627.36 626.43 L 627.63 627.59 L 627.82 629.81 L 627.31 630.45 L 626.50 630.94 L 624.77 630.53 L 623.58 629.71 L 622.15 629.01 L 620.88 628.88 L 620.61 630.28 L 619.79 631.41 L 619.03 631.55 L 618.27 631.37 L 617.27 632.59 L 616.80 633.48 L 615.57 634.43 L 612.30 634.88 L 611.16 635.82 L 609.62 635.67 L 608.43 635.89 L 607.75 635.85 L 607.14 635.34 L 606.45 635.33 L 606.14 636.88 L 604.29 637.54 L 602.62 637.72 L 600.77 639.77 L 599.45 641.01 L 598.47 641.14 L 597.75 640.69 L 597.38 638.86 L 597.02 638.64 L 596.81 640.37 L 596.45 641.80 L 595.77 642.59 L 593.63 644.37 L 593.02 646.15 L 593.43 647.79 L 596.31 648.19 L 596.67 649.09 L 596.39 649.82 L 595.70 650.44 L 595.49 651.36 L 598.58 654.28 L 598.68 655.39 L 598.20 656.03 L 597.62 657.39 L 595.98 658.55 L 592.53 659.14 L 589.66 658.54 L 588.79 657.23 L 588.84 656.29 L 589.55 656.56 L 590.37 656.48 L 590.12 655.62 L 589.78 655.12 L 588.45 654.36 L 587.38 652.31 L 587.59 650.60 L 587.00 649.28 L 586.36 648.17 L 585.71 647.50 L 585.36 646.68 L 586.02 644.09 L 585.65 642.58 L 586.88 640.74 L 587.19 638.65 L 589.39 637.91 L 589.54 635.92 L 587.96 635.87 L 586.87 634.41 L 586.62 635.02 L 585.74 635.08 L 584.30 632.27 L 583.87 631.92 L 583.17 631.86 L 583.52 634.83 L 581.83 635.95 L 580.45 636.43 L 578.48 636.63 L 577.36 636.97 L 576.32 636.69 L 576.58 635.80 L 577.13 634.72 L 576.63 633.83 L 575.52 633.14 L 573.83 633.18 L 572.66 632.99 L 571.49 633.06 L 571.06 632.67 L 569.98 631.27 L 569.07 630.39 L 568.65 629.53 L 569.07 628.52 L 568.72 627.90 L 566.95 627.83 L 566.96 629.28 L 567.15 630.99 L 567.66 632.28 L 567.30 633.01 L 566.40 633.51 L 565.44 632.14 L 565.00 631.80 L 564.54 631.86 L 564.18 633.23 L 563.31 634.44 L 561.75 634.31 L 560.53 635.06 L 559.05 635.40 Z M 604.46 664.32 L 605.23 665.17 L 605.73 666.40 L 606.15 668.66 L 606.40 670.74 L 604.83 672.07 L 603.42 672.60 L 600.60 677.69 L 600.01 679.30 L 599.53 679.97 L 599.38 680.67 L 599.43 681.37 L 598.70 683.82 L 598.05 686.82 L 597.64 688.06 L 596.84 689.00 L 595.81 689.48 L 595.15 689.55 L 594.54 689.82 L 593.05 691.46 L 591.37 692.69 L 591.65 693.25 L 591.67 693.79 L 590.93 694.39 L 590.11 694.27 L 587.75 694.76 L 586.88 695.68 L 585.99 697.38 L 585.65 697.61 L 584.23 698.01 L 583.13 698.16 L 581.28 696.96 L 580.36 696.61 L 577.90 696.12 L 575.51 695.31 L 573.84 694.39 L 570.40 692.11 L 570.00 688.01 L 569.41 685.80 L 569.37 685.01 L 569.60 678.19 L 569.84 677.45 L 570.28 676.79 L 571.79 675.27 L 573.53 674.07 L 576.03 671.54 L 577.84 670.39 L 579.36 668.73 L 578.47 668.80 L 577.81 668.59 L 578.46 667.17 L 579.15 666.41 L 579.95 665.99 L 581.56 666.29 L 583.05 666.00 L 584.14 664.74 L 585.19 664.47 L 589.16 664.88 L 591.91 664.31 L 593.29 663.15 L 593.94 663.10 L 595.97 663.43 L 596.73 664.64 L 596.66 663.83 L 596.74 663.04 L 597.12 663.13 L 599.78 664.62 L 599.78 662.79 L 599.93 662.31 L 600.76 661.54 L 601.18 661.56 L 602.21 663.04 L 603.21 663.90 L 604.46 664.32 Z" fill="#EEF2F7" fill-rule="evenodd" clip-rule="evenodd" stroke="#475569" stroke-width="2" stroke-linejoin="round" stroke-linecap="round" vector-effect="non-scaling-stroke"/>
</svg>
